<svg width="48" height="48" viewBox="0 0 48 48" xmlns="http://www.w3.org/2000/svg" role="img" aria-label="Rice flour">
  <path d="M13 16c3-2 5-4 11-4s8 2 11 4v22a3 3 0 0 1-3 3H16a3 3 0 0 1-3-3Z" fill="#ebe6db"/>
  <path d="M13 16c4 3 18 3 22 0" stroke="#cdc6b6" stroke-width="2" fill="none"/>
  <rect x="17" y="22" width="14" height="12" rx="2" fill="#7fa86a"/>

  <g fill="#ffffff"><ellipse cx="21" cy="28" rx="1.6" ry="2.6" transform="rotate(-20 21 28)"/><ellipse cx="24.5" cy="27" rx="1.6" ry="2.6"/><ellipse cx="28" cy="28" rx="1.6" ry="2.6" transform="rotate(20 28 28)"/></g>
</svg>
