<svg width="48" height="48" viewBox="0 0 48 48" xmlns="http://www.w3.org/2000/svg" role="img" aria-label="Pepper grinder">
  <defs>
    <linearGradient id="b" x1="18" y1="0" x2="30" y2="0" gradientUnits="userSpaceOnUse"><stop offset="0" stop-color="#7a8088"/><stop offset=".4" stop-color="#4a4f56"/><stop offset="1" stop-color="#25282d"/></linearGradient>
    <linearGradient id="t" x1="18" y1="0" x2="30" y2="0" gradientUnits="userSpaceOnUse"><stop offset="0" stop-color="#a7aeb7"/><stop offset=".5" stop-color="#767d86"/><stop offset="1" stop-color="#4e545c"/></linearGradient>
    <radialGradient id="c" cx="-.5" cy="-.5" r="2" gradientUnits="userSpaceOnUse"><stop offset="0" stop-color="#8a8f96"/><stop offset="1" stop-color="#2e3136"/></radialGradient>
  </defs>
  <g transform="translate(-3.64 -3.12) scale(1.125)">
    <circle cx="24" cy="9.6" r="1.8" fill="#8e959e"/>
    <path d="M20 11h8l2 8H18Z" fill="url(#t)"/>
    <path d="M18 19h12v17a3 3 0 0 1-3 3h-6a3 3 0 0 1-3-3Z" fill="url(#b)"/>
    <rect x="18" y="24" width="12" height="3" fill="#8e959e" fill-opacity=".55"/>
    <path d="M19.8 29v6M20.8 13v4" stroke="#fff" stroke-opacity=".35" stroke-width="1.4" stroke-linecap="round"/>
    <circle cx="0" cy="0" r="1.8" fill="url(#c)" transform="translate(36 21)"/>
    <circle cx="0" cy="0" r="1.5" fill="url(#c)" transform="translate(39 27)"/>
    <circle cx="0" cy="0" r="1.3" fill="url(#c)" transform="translate(35.4 31)"/>
  </g>
</svg>
